REM DIRINDEX 1\2,1\3,1\4
REM DIRNAME folder01,folder02,folder03,folder04
TITLE ""
FILE "150 150_TOEFL_3900.mp3" MP3
  TRACK 01 AUDIO
    TITLE "0:"
    INDEX 01 00:00:00
  TRACK 02 AUDIO
    TITLE "2:cjc151_6530"
    INDEX 01 00:00:13
  TRACK 03 AUDIO
    TITLE "0:"
    INDEX 01 00:01:36
  TRACK 04 AUDIO
    TITLE "3:cjc151_6531"
    INDEX 01 00:03:15
  TRACK 05 AUDIO
    TITLE "0:"
    INDEX 01 00:07:15
  TRACK 06 AUDIO
    TITLE "2:cjc151_6532"
    INDEX 01 00:08:68
  TRACK 07 AUDIO
    TITLE "0:"
    INDEX 01 00:10:12
  TRACK 08 AUDIO
    TITLE "3:cjc151_6533"
    INDEX 01 00:11:64
  TRACK 09 AUDIO
    TITLE "0:"
    INDEX 01 00:15:64
  TRACK 10 AUDIO
    TITLE "2:cjc151_6534"
    INDEX 01 00:17:43
  TRACK 11 AUDIO
    TITLE "0:"
    INDEX 01 00:18:52
  TRACK 12 AUDIO
    TITLE "3:cjc151_6535"
    INDEX 01 00:20:30
  TRACK 13 AUDIO
    TITLE "0:"
    INDEX 01 00:23:44
  TRACK 14 AUDIO
    TITLE "2:cjc151_6536"
    INDEX 01 00:25:33
  TRACK 15 AUDIO
    TITLE "0:"
    INDEX 01 00:26:44
  TRACK 16 AUDIO
    TITLE "3:cjc151_6537"
    INDEX 01 00:28:23
  TRACK 17 AUDIO
    TITLE "0:"
    INDEX 01 00:32:47
  TRACK 18 AUDIO
    TITLE "2:cjc151_6538"
    INDEX 01 00:34:26
  TRACK 19 AUDIO
    TITLE "0:"
    INDEX 01 00:35:31
  TRACK 20 AUDIO
    TITLE "3:cjc151_6539"
    INDEX 01 00:37:10
  TRACK 21 AUDIO
    TITLE "0:"
    INDEX 01 00:41:32
  TRACK 22 AUDIO
    TITLE "2:cjc151_6540"
    INDEX 01 00:43:09
  TRACK 23 AUDIO
    TITLE "0:"
    INDEX 01 00:44:16
  TRACK 24 AUDIO
    TITLE "3:cjc151_6541"
    INDEX 01 00:45:71
  TRACK 25 AUDIO
    TITLE "0:"
    INDEX 01 00:51:01
  TRACK 26 AUDIO
    TITLE "2:cjc151_6542"
    INDEX 01 00:52:53
  TRACK 27 AUDIO
    TITLE "0:"
    INDEX 01 00:53:58
  TRACK 28 AUDIO
    TITLE "3:cjc151_6543"
    INDEX 01 00:55:36
  TRACK 29 AUDIO
    TITLE "0:"
    INDEX 01 00:59:26
  TRACK 30 AUDIO
    TITLE "2:cjc151_6544"
    INDEX 01 01:01:05
  TRACK 31 AUDIO
    TITLE "0:"
    INDEX 01 01:02:24
  TRACK 32 AUDIO
    TITLE "3:cjc151_6545"
    INDEX 01 01:04:03
  TRACK 33 AUDIO
    TITLE "0:"
    INDEX 01 01:07:29
  TRACK 34 AUDIO
    TITLE "2:cjc151_6546"
    INDEX 01 01:09:09
  TRACK 35 AUDIO
    TITLE "0:"
    INDEX 01 01:10:24
  TRACK 36 AUDIO
    TITLE "3:cjc151_6547"
    INDEX 01 01:12:01
  TRACK 37 AUDIO
    TITLE "0:"
    INDEX 01 01:16:28
  TRACK 38 AUDIO
    TITLE "2:cjc151_6548"
    INDEX 01 01:18:06
  TRACK 39 AUDIO
    TITLE "0:"
    INDEX 01 01:19:17
  TRACK 40 AUDIO
    TITLE "3:cjc151_6549"
    INDEX 01 01:20:71
  TRACK 41 AUDIO
    TITLE "0:"
    INDEX 01 01:24:49
  TRACK 42 AUDIO
    TITLE "2:cjc151_6550"
    INDEX 01 01:26:30
  TRACK 43 AUDIO
    TITLE "0:"
    INDEX 01 01:27:40
  TRACK 44 AUDIO
    TITLE "3:cjc151_6551"
    INDEX 01 01:29:17
  TRACK 45 AUDIO
    TITLE "0:"
    INDEX 01 01:32:13
  TRACK 46 AUDIO
    TITLE "2:cjc151_6552"
    INDEX 01 01:33:68
  TRACK 47 AUDIO
    TITLE "0:"
    INDEX 01 01:35:26
  TRACK 48 AUDIO
    TITLE "3:cjc151_6553"
    INDEX 01 01:37:03
  TRACK 49 AUDIO
    TITLE "0:"
    INDEX 01 01:40:19
  TRACK 50 AUDIO
    TITLE "2:cjc151_6554"
    INDEX 01 01:41:73
  TRACK 51 AUDIO
    TITLE "0:"
    INDEX 01 01:44:42
  TRACK 52 AUDIO
    TITLE "3:cjc151_6555"
    INDEX 01 01:46:19
  TRACK 53 AUDIO
    TITLE "0:"
    INDEX 01 01:50:25
  TRACK 54 AUDIO
    TITLE "2:cjc151_6556"
    INDEX 01 01:52:02
  TRACK 55 AUDIO
    TITLE "0:"
    INDEX 01 01:53:08
  TRACK 56 AUDIO
    TITLE "3:cjc151_6557"
    INDEX 01 01:54:62
  TRACK 57 AUDIO
    TITLE "0:"
    INDEX 01 01:59:16
  TRACK 58 AUDIO
    TITLE "2:cjc151_6558"
    INDEX 01 02:00:71
  TRACK 59 AUDIO
    TITLE "0:"
    INDEX 01 02:01:64
  TRACK 60 AUDIO
    TITLE "3:cjc151_6559"
    INDEX 01 02:03:43
  TRACK 61 AUDIO
    TITLE "0:"
    INDEX 01 02:07:12
  TRACK 62 AUDIO
    TITLE "2:cjc151_6560"
    INDEX 01 02:08:64
  TRACK 63 AUDIO
    TITLE "0:"
    INDEX 01 02:10:00
  TRACK 64 AUDIO
    TITLE "3:cjc151_6561"
    INDEX 01 02:11:55
  TRACK 65 AUDIO
    TITLE "0:"
    INDEX 01 02:16:32
  TRACK 66 AUDIO
    TITLE "2:cjc151_6562"
    INDEX 01 02:18:10
  TRACK 67 AUDIO
    TITLE "0:"
    INDEX 01 02:19:15
  TRACK 68 AUDIO
    TITLE "3:cjc151_6563"
    INDEX 01 02:20:69
  TRACK 69 AUDIO
    TITLE "0:"
    INDEX 01 02:25:47
  TRACK 70 AUDIO
    TITLE "2:cjc151_6564"
    INDEX 01 02:27:24
  TRACK 71 AUDIO
    TITLE "0:"
    INDEX 01 02:28:26
  TRACK 72 AUDIO
    TITLE "3:cjc151_6565"
    INDEX 01 02:30:05
  TRACK 73 AUDIO
    TITLE "0:"
    INDEX 01 02:33:27
  TRACK 74 AUDIO
    TITLE "2:cjc151_6566"
    INDEX 01 02:35:04
  TRACK 75 AUDIO
    TITLE "0:"
    INDEX 01 02:36:12
  TRACK 76 AUDIO
    TITLE "3:cjc151_6567"
    INDEX 01 02:37:62
  TRACK 77 AUDIO
    TITLE "0:"
    INDEX 01 02:41:71
  TRACK 78 AUDIO
    TITLE "2:cjc151_6568"
    INDEX 01 02:43:51
  TRACK 79 AUDIO
    TITLE "0:"
    INDEX 01 02:45:03
  TRACK 80 AUDIO
    TITLE "3:cjc151_6569"
    INDEX 01 02:46:55
  TRACK 81 AUDIO
    TITLE "0:"
    INDEX 01 02:50:55
  TRACK 82 AUDIO
    TITLE "2:cjc151_6570"
    INDEX 01 02:52:32
  TRACK 83 AUDIO
    TITLE "0:"
    INDEX 01 02:53:41
  TRACK 84 AUDIO
    TITLE "3:cjc151_6571"
    INDEX 01 02:55:25
  TRACK 85 AUDIO
    TITLE "0:"
    INDEX 01 03:00:41
  TRACK 86 AUDIO
    TITLE "2:cjc151_6572"
    INDEX 01 03:02:19
  TRACK 87 AUDIO
    TITLE "0:"
    INDEX 01 03:03:20
  TRACK 88 AUDIO
    TITLE "3:cjc151_6573"
    INDEX 01 03:04:72
  TRACK 89 AUDIO
    TITLE "0:"
    INDEX 01 03:08:57
